<?xml version="1.0" encoding="UTF-8"?>
<svg id="Layer_2" xmlns="http://www.w3.org/2000/svg" version="1.1" viewBox="0 0 305.11 111.2">
  <!-- Generator: Adobe Illustrator 30.5.1, SVG Export Plug-In . SVG Version: 2.1.4 Build 3)  -->
  <defs>
    <style>
      .st0 {
        fill: #fff;
      }
    </style>
  </defs>
  <g id="Layer_1-2">
    <g id="g1">
      <path class="st0" d="M301.75,26.06c-1.35,1.49-3.73,2.22-5.62,2.69-3.75.94-7.89.49-11.73.49h0c0-4.18-.76-9.18.49-13.2,4.9-15.82,28.76-3.07,16.86,10.02Z"/>
      <path class="st0" d="M304.93,82c0-13.63,2.19-30.48-14.66-34.69-2.87-.72-5.87-.49-8.8-.49,0-15.02,1.43-32.27-16.13-37.63-5.26-1.61-12.12-.49-17.59-.49V1.39h-20.51v7.33h-13.19v20.52h13.19v17.59h-20.52v20.52h20.52v42.51h20.52v-42.51h21.99c3.1,0,7.42-.77,10.26.73,5.36,2.84,7.21,19.45,2.69,23.7-3.84,3.6-12.53,1.95-17.35,1.95.81,4.39,2.5,12.62,6.35,15.39,2.06,1.48,5.95.73,8.31.73,7.6,0,16.23.89,21.5-5.86,4.78-6.13,3.42-14.72,3.42-21.99ZM260.94,46.82h-13.19v-17.59h13.19v17.59Z"/>
      <polygon class="st0" points="208.17 90.79 208.17 109.85 140.74 109.85 148.56 91.53 167.13 90.8 167.13 29.23 155.4 29.23 155.4 8.71 200.84 8.71 200.84 29.22 189.11 29.22 189.11 90.79 208.17 90.79"/>
      <polygon class="st0" points="137.8 90.8 130.47 109.86 98.22 109.86 106.04 90.07 117.28 90.31 137.8 90.8"/>
      <path class="st0" d="M133.41,64.4l13.19,1.47c-1.45,3.93-3.4,11.34-6.35,14.42-2.17,2.26-5.48,1.71-8.31,1.71-6.39,0-19.3,2.65-22.72-4.4-1.57-3.23.68-7.31,1.95-10.26,2.66-6.17,6.19-12.48,7.57-19.06-3.19,0-7.22.63-10.26-.49-11.4-4.19,1.28-22.52,3.91-28.83,1.85-4.43,4.04-14.05,8.06-16.86,5.65-3.94,14.24-1.21,20.28-.73h.01l-10.26,27.85h17.59l-14.66,35.18Z"/>
      <path class="st0" d="M96.76,77.61l-8.8,21.99h-2.93c-7.87-12.46-8.87-25.31-10.26-39.58-.99-10.14-2.93-20.58-2.93-30.78h20.52l4.4,48.37Z"/>
      <polygon class="st0" points="24.93 29.23 18.82 83.47 8.8 101.06 0 77.6 4.4 29.22 24.92 29.22 24.93 29.23"/>
      <path class="st0" d="M58.64,76.13c0,8.04,1.39,17.39-1.95,24.92-3.19,7.18-18.04,13.59-25.41,8.06-3.24-2.43-5.55-11.58-6.35-15.38,4.03,0,10.02,1.2,12.46-2.93,2.59-4.39.73-14.06.73-19.06V23.36c0-4.53-2.29-18.38,1.71-21.26,3.29-2.37,17.1-1.87,18.57,2.2,2.4,6.66.24,17.83.24,24.92v46.91Z"/>
    </g>
  </g>
</svg>